<svg width="272" height="232" viewBox="0 0 272 232" fill="none" xmlns="http://www.w3.org/2000/svg">
<path d="M272 127L253 117V180L272 168V127Z" fill="#E0E0E0"/>
<path d="M8.74228e-07 170L19 180L19 117L4.45856e-06 129L8.74228e-07 170Z" fill="#E0E0E0"/>
<path d="M75 115C77.3814 117.381 97.3256 137.326 107 147" stroke="#F2F2F2" stroke-width="10"/>
<path d="M107 115C104.619 117.381 84.6744 137.326 75 147" stroke="#F2F2F2" stroke-width="10"/>
<path d="M163 115C165.381 117.381 185.326 137.326 195 147" stroke="#F2F2F2" stroke-width="10"/>
<path d="M195 115C192.619 117.381 172.674 137.326 163 147" stroke="#F2F2F2" stroke-width="10"/>
<path fill-rule="evenodd" clip-rule="evenodd" d="M104.322 179.932C104.256 179.943 104.313 179.941 104.54 179.932L104.54 179.932C104.832 179.92 105.404 179.897 106.358 179.877C107.813 179.846 109.81 179.824 112.233 179.808C117.074 179.776 123.544 179.773 130.64 179.787C134.773 179.796 139.115 179.81 143.464 179.829C143.162 180.833 143 181.898 143 183V185C143 191.075 147.925 196 154 196H155C161.075 196 166 191.075 166 185V183C166 181.942 165.851 180.919 165.572 179.951C168.038 179.967 170.354 179.984 172.462 180L172.538 170C161.533 169.917 144.873 169.817 130.66 169.788C123.556 169.773 117.052 169.776 112.168 169.808C109.728 169.824 107.675 169.847 106.146 169.879C104.859 169.907 103.429 169.943 102.678 170.068L104.322 179.932ZM148.89 179.854C152.751 179.873 156.551 179.894 160.148 179.916C160.689 180.817 161 181.872 161 183V185C161 188.314 158.314 191 155 191H154C150.687 191 148 188.314 148 185V183C148 181.846 148.326 180.768 148.89 179.854Z" fill="#F2F2F2"/>
<rect x="26" y="77" width="220" height="144" rx="49" stroke="white" stroke-width="22"/>
<path d="M171.6 29H183L190.1 74H167.1L171.6 29Z" fill="#E0E0E0"/>
<circle cx="179" cy="20" r="20" fill="white"/>
</svg>
