<svg width="91" height="24" viewBox="0 0 91 24" fill="none" xmlns="http://www.w3.org/2000/svg">
<path fill-rule="evenodd" clip-rule="evenodd" d="M15.7476 18.4956H5.757L3.96094 23.6888H0L8.41901 0.327671H13.0855L21.5046 23.6888H17.5597L15.7476 18.4956ZM14.5929 15.1372L10.7603 4.09553L6.92764 15.1372H14.5929ZM33.1446 24C30.9529 24 28.9805 23.5113 27.2272 22.5338C25.4739 21.5563 24.0975 20.1611 23.0979 18.3481C22.0983 16.5351 21.5985 14.4164 21.5985 11.9918C21.5985 9.57815 22.0983 7.46486 23.0979 5.65188C24.0975 3.8389 25.4739 2.44369 27.2272 1.46621C28.9805 0.488732 30.9529 0 33.1446 0C34.7375 0 36.2235 0.264844 37.6026 0.794539C38.9818 1.32423 40.1871 2.08873 41.2188 3.08805C42.2505 4.08738 43.0496 5.28054 43.6162 6.66758L40.0401 8.06007C39.4521 6.67303 38.5461 5.59181 37.322 4.81638C36.0979 4.04095 34.7054 3.65324 33.1446 3.65324C31.6906 3.65324 30.3783 3.98634 29.2077 4.65256C28.037 5.31877 27.115 6.28259 26.4414 7.54403C25.7679 8.80547 25.4312 10.288 25.4312 11.9918C25.4312 13.7065 25.7679 15.1945 26.4414 16.456C27.115 17.7174 28.037 18.6812 29.2077 19.3474C30.3783 20.0137 31.6906 20.3468 33.1446 20.3468C34.7161 20.3468 36.1113 19.9618 37.33 19.1918C38.5488 18.4218 39.4521 17.3434 40.0401 15.9563L43.6162 17.3488C43.0496 18.7249 42.2505 19.9126 41.2188 20.9119C40.1871 21.9113 38.9818 22.6758 37.6026 23.2055C36.2235 23.7352 34.7375 24 33.1446 24ZM68.2937 23.6888L66.7863 5.24235L60.2274 23.6888H57.822L51.2953 5.27511L49.7718 23.6888H45.9552L47.7833 0.327671H53.1234L59.0087 16.841L64.9421 0.327671H70.2822L72.0942 23.6888H68.2937ZM80.4308 3.81709V10.2881H88.2885V13.7447H80.4308V20.183H89.3148V23.6888H76.55V0.327671H89.3148V3.81709H80.4308Z" fill="black"/>
</svg>
