<svg width="32" height="32" viewBox="0 0 32 32" fill="none" xmlns="http://www.w3.org/2000/svg">
<path fill-rule="evenodd" clip-rule="evenodd" d="M25 23.5932L19.8809 18.4741C20.7868 17.2746 21.324 15.781 21.324 14.162C21.324 10.2065 18.1175 7 14.162 7C10.2065 7 7 10.2065 7 14.162C7 18.1175 10.2065 21.324 14.162 21.324C15.781 21.324 17.2746 20.7868 18.4741 19.8809L23.5932 25L25 23.5932ZM19.3346 14.162C19.3346 17.0187 17.0187 19.3346 14.162 19.3346C11.3053 19.3346 8.98944 17.0187 8.98944 14.162C8.98944 11.3053 11.3053 8.98945 14.162 8.98945C17.0187 8.98945 19.3346 11.3053 19.3346 14.162Z" fill="#F2F2F2"/>
</svg>
